<svg width="48" height="48" role="img" aria-label="Yool - разработка сайтов" xmlns:xlink="http://www.w3.org/1999/xlink" xmlns="http://www.w3.org/2000/svg"><defs><clipPath id="b"><use xlink:href="#a"/></clipPath><path d="M0 0h48v48H0V0Z" id="a"/></defs><path d="M0 0h48v48H0V0Z" fill="none"/><g clip-path="url(#b)"><path d="M5.33 34.872c.074.94.188 2.677.331 3.608.144.934.314 1.894.821 2.688.637.996 1.741 1.609 2.88 1.89 1.139.281 2.326.266 3.498.25 1.907-.026 4.187-.04 6.094.007 7.12.177 14.942.501 21.639-1.953.552-.202 1.112-.432 1.537-.842.511-.493.773-1.193.941-1.887.362-1.489.369-3.039.374-4.573.023-6.891.046-13.785-.253-20.669-.102-2.352-.326-4.911-1.918-6.628-1.053-1.136-2.578-1.728-4.102-1.944-1.525-.217-3.074-.093-4.61-.003-5.257.309-11.135-.219-16.401-.251-1.374-.008-3.361.2-4.732.305-1.92.148-4.063.408-5.281 1.918-.766.951-1.002 2.22-1.162 3.436-1.033 7.892-.281 16.711.344 24.648Z" fill="#11b582"/><path d="M23.325 23.4c-.25-1.22-1.08-2.27-2.15-2.74-1.07-.47-2.52-.33-3.45.39-1.06.82-1.82 2.28-1.83 3.67 0 1.39.71 2.79 1.85 3.43.23.13.47.23.71.3.84.28 1.76.34 2.6.07.84-.27 1.6-.89 1.99-1.74.28-.6.36-1.29.38-1.97.01-.47-.01-.95-.1-1.41Zm-2.75 2.79c-.18.17-.4.3-.63.33-.35.04-.67-.16-.97-.36-.14-.09-.27-.18-.41-.27a.85.85 0 0 1-.27-.23c-.1-.14-.13-.32-.15-.5-.06-.51-.08-1.06.1-1.54.23-.6.84-1.14 1.44-1.09.71.06 1.32.83 1.49 1.57.17.74-.07 1.58-.6 2.09ZM7.588 20.552l1.941.005c.291.001.604.009.84.179.165.12.27.303.37.482l.956 1.711.963-2.007c.047-.099.098-.202.186-.267.099-.074.229-.088.353-.098a15.29 15.29 0 0 1 1.672-.043.499.499 0 0 1 .423.719l-1.792 3.69c-.084.174-.17.351-.197.541-.027.189.003.381.027.571.09.711.082 1.298-.023 1.96a.495.495 0 0 1-.502.409c-.505-.008-1.01.006-1.514.042a.501.501 0 0 1-.536-.459c-.052-.637-.104-1.197-.156-1.885-.014-.185-.028-.373-.087-.549-.07-.21-.198-.395-.325-.577-.956-1.361-1.645-3.059-2.599-4.424Z" fill="#373837" fill-rule="evenodd"/><path d="M34.776 20.077 36.07 20a.505.505 0 0 1 .528.463c.154 1.87.206 3.607.156 5.51l2.712.015a.5.5 0 0 1 .5.449c.03.35.04.703.03 1.055a.502.502 0 0 1-.434.475c-1.448.209-2.906.396-4.366.333-.19-.008-.407-.035-.515-.191-.069-.1-.076-.227-.08-.347l-.297-7.161a.508.508 0 0 1 .472-.525Z" fill="#373837"/><path d="M4.83 34.872c.15 1.928.123 4.09.888 5.898.856 2.024 2.976 2.837 5.031 3.002 2.435.196 4.926-.011 7.369.027 2.373.037 4.744.13 7.118.136 4.817.012 9.742-.245 14.366-1.706.985-.311 2.119-.62 2.884-1.354.747-.717 1.037-1.795 1.21-2.782.446-2.536.258-5.204.262-7.768.01-5.479-.017-10.96-.243-16.435-.086-2.079-.174-4.272-1.154-6.157-1.003-1.927-2.962-3.021-5.056-3.365-2.484-.408-5.041.005-7.54.038-2.573.035-5.145-.067-7.715-.167-2.396-.093-4.818-.263-7.215-.145-1.146.057-2.288.17-3.431.262-.958.077-1.924.155-2.86.385-2.072.512-3.489 1.832-3.992 3.929-.558 2.324-.633 4.835-.721 7.215-.19 5.128.129 10.262.517 15.373.091 1.205.187 2.409.282 3.614.05.637 1.051.643 1 0-.37-4.693-.754-9.39-.838-14.099-.042-2.394-.008-4.791.16-7.18.081-1.149.186-2.298.344-3.439.141-1.017.337-2.107.961-2.952 1.192-1.614 3.508-1.711 5.327-1.86 2.107-.172 4.178-.298 6.293-.246 4.714.115 9.435.484 14.151.239 2.324-.121 4.829-.432 7.012.586 1.975.922 2.878 2.74 3.22 4.807.374 2.256.32 4.616.38 6.896.066 2.531.098 5.063.111 7.595.013 2.532.008 5.065 0 7.597-.004 1.22.019 2.445-.065 3.663-.074 1.07-.188 2.329-.77 3.262-.595.953-1.876 1.242-2.883 1.556-1.04.324-2.098.586-3.166.798-2.278.452-4.596.669-6.914.769-4.49.194-8.978-.088-13.468-.079-1.098.002-2.195.021-3.293.029-1.183.009-2.396-.013-3.519-.428-.958-.354-1.788-.998-2.212-1.944-.404-.902-.517-1.945-.615-2.92-.088-.882-.147-1.766-.216-2.65-.05-.638-1.05-.643-1 0Z" fill="#010101"/><path d="M32.487 23.653c-.29-.88-.86-1.63-1.46-2.33-.25-.29-.51-.57-.85-.72-.64-.27-1.37-.21-2.05-.16-.98.07-1.97.44-2.5 1.29-.53.85-.66 1.9-.62 2.9.05.95.25 1.94.85 2.68.5.63 1.25 1.02 2.01 1.25.49.15.99.24 1.49.21 1.14-.06 2.22-.75 2.81-1.75.59-1 .69-2.27.32-3.37Zm-1.96 1.3c-.03.27-.09.55-.2.81-.22.5-.67.88-1.2 1.03-.53.14-1.11.03-1.56-.29-.1-.07-.2-.16-.28-.27-.23-.29-.29-.68-.33-1.05-.05-.57-.05-1.17.17-1.69.23-.53.78-.87 1.34-.99.63-.13 1.35.07 1.71.6.36.53.42 1.21.35 1.85Z" fill="#373837" fill-rule="evenodd"/></g></svg>
