<svg width="16" height="16" viewBox="0 0 16 16" fill="none" xmlns="http://www.w3.org/2000/svg">
<g clip-path="url(#clip0_429_8073)">
<path d="M8.00255 3.89258C5.73388 3.89258 3.89722 5.73125 3.89722 7.99791C3.89722 10.2666 5.73588 12.1032 8.00255 12.1032C10.2712 12.1032 12.1079 10.2646 12.1079 7.99791C12.1079 5.72925 10.2692 3.89258 8.00255 3.89258V3.89258ZM8.00255 10.6626C6.52988 10.6626 5.33788 9.46991 5.33788 7.99791C5.33788 6.52591 6.53055 5.33325 8.00255 5.33325C9.47455 5.33325 10.6672 6.52591 10.6672 7.99791C10.6679 9.46991 9.47522 10.6626 8.00255 10.6626V10.6626Z" fill="#222222"/>
<path d="M11.2983 0.0512343C9.82633 -0.0174323 6.18033 -0.014099 4.707 0.0512343C3.41233 0.111901 2.27033 0.424568 1.34966 1.34523C-0.189003 2.8839 0.00766323 4.95723 0.00766323 7.9979C0.00766323 11.1099 -0.16567 13.1352 1.34966 14.6506C2.89433 16.1946 4.99766 15.9926 8.00233 15.9926C11.085 15.9926 12.149 15.9946 13.239 15.5726C14.721 14.9972 15.8397 13.6726 15.949 11.2932C16.0183 9.82057 16.0143 6.17523 15.949 4.7019C15.817 1.89323 14.3097 0.189901 11.2983 0.0512343V0.0512343ZM13.6283 13.6326C12.6197 14.6412 11.2203 14.5512 7.983 14.5512C4.64966 14.5512 3.313 14.6006 2.33766 13.6226C1.21433 12.5046 1.41766 10.7092 1.41766 7.98723C1.41766 4.3039 1.03966 1.65123 4.73633 1.4619C5.58566 1.4319 5.83566 1.4219 7.97366 1.4219L8.00366 1.4419C11.5563 1.4419 14.3437 1.0699 14.511 4.7659C14.549 5.60923 14.5577 5.86257 14.5577 7.99723C14.557 11.2919 14.6197 12.6366 13.6283 13.6326V13.6326Z" fill="#222222"/>
<path d="M12.2706 4.68917C12.8004 4.68917 13.2299 4.25966 13.2299 3.72984C13.2299 3.20002 12.8004 2.77051 12.2706 2.77051C11.7408 2.77051 11.3113 3.20002 11.3113 3.72984C11.3113 4.25966 11.7408 4.68917 12.2706 4.68917Z" fill="#222222"/>
</g>
<defs>
<clipPath id="clip0_429_8073">
<rect width="16" height="16" fill="white"/>
</clipPath>
</defs>
</svg>
