<svg width="19" height="19" fill="none" xmlns="http://www.w3.org/2000/svg"><path d="M18 9.4a8.4 8.4 0 0 1-12.4 7.3L.9 18l1.6-4.4A8.4 8.4 0 0 1 9.7 1C14.3 1 18 4.7 18 9.3Zm-8.3-7a7 7 0 0 0-7.1 7c0 1.5.5 3 1.3 4l-.8 2.7 2.7-.9a7 7 0 0 0 11-5.8 7 7 0 0 0-7.1-7Zm4.2 8.9-.4-.3-1.4-.6h-.5l-.6.9h-.5c-.2 0-.8-.3-1.6-1-.6-.5-1-1.2-1.2-1.4l.1-.4.3-.4.2-.3c.1-.2 0-.3 0-.4L7.7 6c-.2-.4-.4-.3-.5-.3h-.4c-.1 0-.3 0-.5.2s-.7.7-.7 1.7.7 2 .8 2.1c.1.2 1.4 2.3 3.5 3.1 2.1.8 2.1.6 2.5.5.4 0 1.2-.5 1.4-1v-1Z" fill="#222"/></svg>